HIERARCHY
ROOT Hips
{
	OFFSET -0.001795 -0.223333 0.028219
	CHANNELS 6 Xposition Yposition Zposition Zrotation Yrotation Xrotation 
	JOINT LeftUpLeg
	{
		OFFSET 0.069520 -0.091406 -0.006815
		CHANNELS 3 Zrotation Yrotation Xrotation
		JOINT LeftLeg
		{
			OFFSET 0.034277 -0.375199 -0.004496
			CHANNELS 3 Zrotation Yrotation Xrotation
			JOINT LeftFoot
			{
				OFFSET -0.013596 -0.397961 -0.043693
				CHANNELS 3 Zrotation Yrotation Xrotation
				JOINT LeftToe
				{
					OFFSET 0.026358 -0.055791 0.119288
					CHANNELS 3 Zrotation Yrotation Xrotation
					End Site
					{
						OFFSET 0.000000 0.000000 0.000000
					}
				}
			}
		}
	}
	JOINT RightUpLeg
	{
		OFFSET -0.067670 -0.090522 -0.004320
		CHANNELS 3 Zrotation Yrotation Xrotation
		JOINT RightLeg
		{
			OFFSET -0.038290 -0.382569 -0.008850
			CHANNELS 3 Zrotation Yrotation Xrotation
			JOINT RightFoot
			{
				OFFSET 0.015774 -0.398415 -0.042312
				CHANNELS 3 Zrotation Yrotation Xrotation
				JOINT RightToe
				{
					OFFSET -0.025372 -0.048144 0.123348
					CHANNELS 3 Zrotation Yrotation Xrotation
					End Site
					{
						OFFSET 0.000000 0.000000 0.000000
					}
				}
			}
		}
	}
	JOINT Spine
	{
		OFFSET -0.002533 0.108963 -0.026696
		CHANNELS 3 Zrotation Yrotation Xrotation
		JOINT Spine1
		{
			OFFSET 0.005487 0.135180 0.001092
			CHANNELS 3 Zrotation Yrotation Xrotation
			JOINT Spine2
			{
				OFFSET 0.001457 0.052922 0.025425
				CHANNELS 3 Zrotation Yrotation Xrotation
				JOINT Neck
				{
					OFFSET -0.002778 0.213870 -0.042857
					CHANNELS 3 Zrotation Yrotation Xrotation
					JOINT Head
					{
						OFFSET 0.005152 0.064970 0.051349
						CHANNELS 3 Zrotation Yrotation Xrotation
						End Site
						{
							OFFSET 0.000000 0.000000 0.000000
						}
					}
				}
				JOINT LeftShoulder
				{
					OFFSET 0.078845 0.121749 -0.034090
					CHANNELS 3 Zrotation Yrotation Xrotation
					JOINT LeftArm
					{
						OFFSET 0.090977 0.030469 -0.008868
						CHANNELS 3 Zrotation Yrotation Xrotation
						JOINT LeftForeArm
						{
							OFFSET 0.259612 -0.012772 -0.027456
							CHANNELS 3 Zrotation Yrotation Xrotation
							JOINT LeftHand
							{
								OFFSET 0.249234 0.008986 -0.001171
								CHANNELS 3 Zrotation Yrotation Xrotation
								End Site
								{
									OFFSET 0.000000 0.000000 0.000000
								}
							}
						}
					}
				}
				JOINT RightShoulder
				{
					OFFSET -0.081759 0.118833 -0.038615
					CHANNELS 3 Zrotation Yrotation Xrotation
					JOINT RightArm
					{
						OFFSET -0.096012 0.032551 -0.009143
						CHANNELS 3 Zrotation Yrotation Xrotation
						JOINT RightForeArm
						{
							OFFSET -0.253742 -0.013329 -0.021401
							CHANNELS 3 Zrotation Yrotation Xrotation
							JOINT RightHand
							{
								OFFSET -0.255298 0.007772 -0.005559
								CHANNELS 3 Zrotation Yrotation Xrotation
								End Site
								{
									OFFSET 0.000000 0.000000 0.000000
								}
							}
						}
					}
				}
			}
		}
	}
}
MOTION
Frames: 10
Frame Time: 0.050000
0.000000 0.955800 0.000000 1.607802 -1.334421 -1.154816 5.760457 -0.616714 -14.480772 -4.770932 1.180046 41.677839 2.433336 6.466181 4.212670 0.000000 0.000000 0.000000 -3.388802 1.297291 -16.970772 1.215225 0.544912 20.077875 -1.649883 -7.462553 9.004757 0.000000 0.000000 0.000000 0.583328 -0.524646 11.948230 3.319846 -0.313482 -22.478718 0.458446 1.018645 30.233315 -2.372052 2.866286 -20.049179 0.000000 0.000000 0.000000 -17.313753 10.434124 -6.477662 -60.839723 17.575721 -18.662934 -9.847874 -26.117989 3.850033 0.000000 0.000000 0.000000 6.432328 -0.506142 -0.429223 65.937081 -11.195280 -15.616589 7.951865 25.530828 2.958927 0.000000 0.000000 0.000000 
0.004777 0.955302 -0.026401 1.264038 -2.122158 -0.885062 6.203077 -0.415097 -10.643320 -4.508258 1.308776 45.258886 1.655680 6.048741 7.800133 0.000000 0.000000 0.000000 -2.925305 1.539331 -18.922656 1.999593 0.356340 19.949762 -1.268418 -6.717288 8.824901 0.000000 0.000000 0.000000 0.740195 -0.475099 10.518296 5.187931 -0.807032 -22.479563 -1.923841 2.046131 29.413918 -1.651561 2.520345 -21.199608 0.000000 0.000000 0.000000 -14.176037 11.652074 -6.665054 -62.993182 18.753022 -19.875378 -9.701891 -23.881826 3.423269 0.000000 0.000000 0.000000 6.292748 -1.629198 -0.877122 64.908337 -16.812054 -18.138227 14.345066 23.483865 3.901305 0.000000 0.000000 0.000000 
0.011859 0.948014 -0.056290 1.232893 -1.447260 -1.965233 6.048972 -0.227922 -5.294824 -3.840290 0.748781 44.782597 -0.570853 1.687221 6.692895 0.000000 0.000000 0.000000 -3.661545 1.455588 -19.591497 2.822427 0.083314 19.698000 -1.186446 -7.115396 10.838907 0.000000 0.000000 0.000000 1.686687 -0.543373 10.088976 3.399501 -0.357605 -22.133186 -1.798012 -0.484209 30.921035 -1.989975 2.480095 -25.788476 0.000000 0.000000 0.000000 -15.251572 11.346444 -6.271919 -62.171716 16.837035 -18.619197 -9.620450 -27.527968 4.199904 0.000000 0.000000 0.000000 5.021479 -2.790199 -1.391041 66.894432 -20.439187 -21.274774 15.558329 23.154035 4.030914 0.000000 0.000000 0.000000 
0.021047 0.940390 -0.091258 0.918832 -1.057538 -3.246945 5.224865 0.013297 0.465640 -2.030078 -0.306105 39.950435 -2.283983 -2.562544 4.421488 0.000000 0.000000 0.000000 -4.293908 1.466913 -21.510441 3.692957 -0.184876 19.614750 -1.389432 -8.229146 13.618444 0.000000 0.000000 0.000000 0.993160 -0.543960 11.455315 4.193914 -0.527764 -22.737131 -2.727145 -2.057668 31.794616 -2.690311 2.622348 -23.724667 0.000000 0.000000 0.000000 -17.235133 10.497835 -5.788280 -63.336211 15.708836 -18.531216 -5.707952 -28.500065 3.529860 0.000000 0.000000 0.000000 5.611520 -2.537301 -1.414477 67.341938 -22.966764 -23.249047 16.602398 22.369881 4.035210 0.000000 0.000000 0.000000 
0.032890 0.931678 -0.134309 0.156413 -0.595662 -3.620918 5.438858 0.103288 2.569727 -1.281883 -0.642204 34.204741 -2.470672 -4.453137 1.530121 0.000000 0.000000 0.000000 -4.645733 1.510218 -23.494360 3.617391 -0.225695 16.691313 -1.559392 -9.410127 17.580681 0.000000 0.000000 0.000000 0.297650 -0.513706 12.181445 5.753219 -1.041929 -21.309180 -3.609693 -2.961187 30.450991 -2.941371 2.684304 -24.035609 0.000000 0.000000 0.000000 -18.929013 9.629242 -5.448888 -61.470983 13.625344 -16.868595 -8.122782 -30.078488 4.398976 0.000000 0.000000 0.000000 6.967349 -3.762112 -2.132804 67.076668 -24.409205 -23.906950 17.158534 22.309781 4.094151 0.000000 0.000000 0.000000 
0.046385 0.926238 -0.184228 -0.217470 -0.552221 -4.000724 4.351204 0.087098 1.729315 -0.813129 -0.787644 31.843962 -1.063308 -4.305609 -3.604626 0.000000 0.000000 0.000000 -4.727250 1.567527 -24.722085 1.778047 0.133602 12.702290 -0.775224 -8.690421 20.069760 0.000000 0.000000 0.000000 -0.820336 -0.436224 13.275608 5.897499 -1.076284 -21.410586 -3.190392 -4.369743 31.003309 -2.111455 1.900447 -23.772853 0.000000 0.000000 0.000000 -18.375316 8.333909 -4.307412 -61.742778 10.742883 -15.561507 -7.584886 -29.850034 4.328037 0.000000 0.000000 0.000000 6.670339 -4.047148 -2.327131 65.740511 -24.545081 -23.718163 18.338004 22.852666 4.357287 0.000000 0.000000 0.000000 
0.059278 0.926387 -0.236952 -0.744450 -1.787382 -4.861128 3.972578 0.019548 0.102881 -1.717267 -0.257283 30.749357 0.970554 -0.205322 -5.062551 0.000000 0.000000 0.000000 -4.711780 1.631161 -24.625246 1.408712 0.105931 8.514577 -0.472939 -8.577852 20.645514 0.000000 0.000000 0.000000 -1.526477 -0.388357 15.215612 5.968829 -1.247220 -19.993321 -2.282932 -3.557708 29.901686 -2.691820 2.324137 -24.443368 0.000000 0.000000 0.000000 -18.260543 7.208605 -3.719321 -61.103678 7.189287 -13.571357 -7.786407 -30.107008 4.375583 0.000000 0.000000 0.000000 6.146225 -4.365245 -2.377139 66.891495 -22.846753 -23.139114 18.364849 23.089693 4.425920 0.000000 0.000000 0.000000 
0.070074 0.931734 -0.288330 -1.175321 -2.318028 -4.872033 3.479407 -0.149493 -2.679705 -1.822276 -0.136699 28.620434 1.496584 0.607220 -6.108149 0.000000 0.000000 0.000000 -5.526647 1.498662 -24.607743 3.209843 -0.183022 9.991899 -3.258490 -12.494493 17.651434 0.000000 0.000000 0.000000 -2.589209 -0.254842 16.118153 6.224984 -1.347964 -19.813588 -1.444622 -3.580887 29.980949 -4.013661 3.097043 -24.790655 0.000000 0.000000 0.000000 -17.959341 7.433675 -3.741633 -59.557631 5.011270 -12.247355 -9.823705 -29.561399 4.843097 0.000000 0.000000 0.000000 5.431860 -2.594728 -1.574878 66.973622 -20.644576 -22.037064 19.547886 24.108030 4.880634 0.000000 0.000000 0.000000 
0.078670 0.940364 -0.337807 -1.403075 -3.129975 -4.974581 4.080181 -0.253686 -5.034956 -2.947030 0.365369 27.117907 2.026960 3.038980 -3.495382 0.000000 0.000000 0.000000 -5.378706 1.660762 -25.817099 4.428043 -0.304467 18.478849 -4.234924 -13.900068 15.785867 0.000000 0.000000 0.000000 -2.514848 -0.257122 16.950046 5.635457 -1.200161 -19.829388 -0.788517 -2.567347 29.914965 -4.526669 3.533207 -24.149470 0.000000 0.000000 0.000000 -18.898501 6.344888 -3.315435 -58.113482 4.671707 -11.918528 -9.251063 -30.004187 4.696825 0.000000 0.000000 0.000000 5.991395 -1.554909 -1.182728 66.026498 -17.462938 -19.815552 19.100084 25.356936 5.102536 0.000000 0.000000 0.000000 
0.085330 0.949435 -0.386453 -1.722633 -3.789871 -5.263943 4.139805 -0.368915 -7.463153 -2.832272 0.364238 25.235774 2.283328 4.275443 -1.717985 0.000000 0.000000 0.000000 -5.293116 1.584793 -24.024432 6.098657 -0.661566 29.670998 -4.524546 -13.786905 11.741549 0.000000 0.000000 0.000000 -2.828556 -0.202525 17.459233 5.606812 -1.239161 -19.469659 -0.216565 -0.896625 29.918142 -4.981421 4.047458 -24.820305 0.000000 0.000000 0.000000 -18.581217 5.479202 -3.097549 -57.485195 4.422879 -11.698137 -8.904486 -29.308194 4.363191 0.000000 0.000000 0.000000 7.301592 0.597544 -0.319802 65.117357 -14.026382 -17.414927 16.141630 27.890671 5.048236 0.000000 0.000000 0.000000 
